<?xml version="1.0" encoding="UTF-8"?>
<svg id="Layer_1" data-name="Layer 1" xmlns="http://www.w3.org/2000/svg" xmlns:xlink="http://www.w3.org/1999/xlink" viewBox="0 0 283.46 283.46">
  <defs>
    <style>
      .cls-1 {
        clip-path: url(#clippath);
      }

      .cls-2 {
        fill: none;
      }

      .cls-2, .cls-3, .cls-4 {
        stroke-width: 0px;
      }

      .cls-3 {
        fill: url(#linear-gradient);
      }

      .cls-4 {
        fill: #241c45;
      }
    </style>
    <linearGradient id="linear-gradient" x1="25.3" y1="163.56" x2="56.26" y2="112.41" gradientUnits="userSpaceOnUse">
      <stop offset="0" stop-color="#3c84c5"/>
      <stop offset=".45" stop-color="#c666a7"/>
      <stop offset="1" stop-color="#f8bb4d"/>
    </linearGradient>
    <clipPath id="clippath">
      <rect class="cls-2" x="74.14" y="155.97" width="195.96" height="15.95"/>
    </clipPath>
  </defs>
  <path class="cls-3" d="M64.02,142.2c-2.16-4.1-4.4-8.71-4.44-9.33.78-6.79-1.39-12.49-6.07-16.31-.04-.05-.08-.08-.14-.11-1.39-1.12-2.99-2.08-4.81-2.84-1.15-.49-2.35-.87-3.58-1.17-.07-.03-.14-.05-.21-.05-1.01-.24-2.03-.42-3.06-.54-.14-.54-.63-.94-1.21-.94-.53,0-.98.32-1.17.77-.85-.02-1.69,0-2.52.06-.35-.84-1.17-1.42-2.14-1.42-1.23,0-2.24.98-2.3,2.2-2.07.6-3.88,1.51-5.2,2.71-.14-.04-.27-.06-.42-.06-.96,0-1.74.78-1.74,1.74s.78,1.73,1.74,1.73,1.73-.78,1.73-1.73c0-.41-.14-.78-.38-1.07,1.16-1,2.69-1.76,4.44-2.29.36.82,1.17,1.4,2.13,1.4.11,0,.21-.02.31-.03.11.4.23.81.32,1.22.75,3.52.5,7.16-.72,10.53-.09-.02-.18-.03-.28-.03-.78,0-1.42.64-1.42,1.43,0,.05,0,.09.02.14-2.12.75-4.14,1.74-6.03,2.96-.56-.89-1.08-1.82-1.54-2.8-.62-1.33-1.12-2.71-1.49-4.13.34-.22.56-.61.56-1.04,0-.7-.57-1.26-1.26-1.26s-1.26.56-1.26,1.26c0,.57.38,1.05.91,1.2.4,1.52.93,3.01,1.59,4.43.48,1.02,1.03,2,1.62,2.93-.7.5-1.39,1.03-2.04,1.58l-.14.11s-.02,0-.02.02h0c-.62.54-1.2,1.1-1.76,1.68-.18-.1-.39-.16-.6-.16-.72,0-1.29.58-1.29,1.3s.57,1.29,1.29,1.29,1.29-.58,1.29-1.29c0-.1-.02-.19-.03-.28.53-.55,1.07-1.09,1.65-1.6l.15-.13c.09-.07.18-.14.27-.21.59-.49,1.2-.96,1.84-1.39.59.85,1.24,1.68,1.93,2.45-.04.03-.07.07-.11.1-1.6,1.26-3.38,2.26-5.31,2.96l-.11.05c-.81.29-1.64.51-2.48.69-.29-.55-.86-.92-1.52-.92-.95,0-1.73.77-1.73,1.72s.78,1.72,1.73,1.72c.86,0,1.57-.64,1.69-1.47.94-.2,1.87-.46,2.77-.78l.11-.05c2-.73,3.84-1.77,5.49-3.08.06-.05.12-.11.18-.16,2.01,2.09,4.35,3.82,6.93,5.15-1.73,1.84-3.73,3.41-5.94,4.66-.39-.41-.93-.66-1.54-.66-1.17,0-2.12.94-2.12,2.12,0,.08.02.16.02.24-.06.02-.11.05-.18.07-2.96,1.07-6.1,1.57-9.22,1.49-.24-.8-.98-1.39-1.87-1.39-1.08,0-1.96.88-1.96,1.96s.88,1.96,1.96,1.96c.91,0,1.66-.62,1.88-1.46.21,0,.43.02.64.02,3.02,0,6.06-.53,8.92-1.57.07-.02.13-.05.2-.08.38.53,1.01.88,1.71.88.37,0,.72-.11,1.02-.27,2.18,1.84,4.61,3.35,7.25,4.47,2.23.94,4.55,1.58,6.93,1.93.02.08.04.16.06.23-3.98,2.5-8.53,3.81-13.29,3.81-1.67,0-3.32-.17-4.93-.5-.14-.44-.55-.77-1.04-.77-.61,0-1.1.5-1.1,1.1s.49,1.1,1.1,1.1c.33,0,.62-.14.82-.38,1.68.34,3.41.52,5.15.52,5.01,0,9.79-1.4,13.97-4.05.21.13.46.21.73.21.65,0,1.2-.42,1.4-.99.41.02.83.03,1.25.03,3.68,0,7.25-.7,10.6-2.06-.14.72-.37,1.11-.55,1.3-.23.25-.43.27-.46.27-18.35.31-26.48,16.99-26.57,17.16-.12.27-.02.59.25.72.08.03.15.05.23.05.2,0,.4-.11.49-.3.08-.17,7.92-16.26,25.59-16.56.06,0,.63.02,1.19-.53.78-.78,1.14-2.26,1.04-4.42-.02-.31-.11-.62-.27-.88l-.91-1.54,1.3-.87c.43-.28.68-.75.68-1.26v-1.55c0-.16.09-.3.24-.37l2.8-1.29c.26-.12.45-.35.52-.63.06-.26,0-.53-.14-.74ZM61.23,139.12c-1.73,1.07-3.56,1.91-5.46,2.52.69-2.35,1.06-4.81,1.06-7.31,0-.85-.06-1.7-.14-2.54.6.37,1.21.79,1.85,1.26.21.99,1.42,3.55,2.68,6.07ZM53.58,118.01c3.02,2.75,5.54,7.07,5.02,13.78-.59-.42-1.19-.82-1.77-1.16-.09-.06-.2-.11-.3-.17-.45-3.09-1.46-6.04-2.94-8.73.17-.21.27-.47.27-.77,0-.42-.21-.8-.54-1.02l.04-.18c.1-.58.18-1.17.21-1.75ZM42.43,132.91c.22-.59.42-1.19.6-1.79.32-1.11.57-2.25.74-3.4.86.05,1.72.13,2.57.25,0,.03,0,.06,0,.09,0,1.64,1.33,2.96,2.96,2.96,1.14,0,2.12-.65,2.61-1.6,1.26.47,2.48,1.04,3.66,1.71.14,1.06.21,2.13.21,3.2,0,2.64-.43,5.23-1.22,7.69-2.52.67-5.13.95-7.78.81-1.21-.07-2.37-.21-3.46-.43-1.88-.36-3.69-.94-5.41-1.71,1.15-1.36,2.15-2.85,3.01-4.43.06,0,.13.02.19.02,1.08,0,1.96-.88,1.96-1.96,0-.56-.24-1.07-.62-1.43ZM52.75,122.41c1.24,2.3,2.12,4.79,2.6,7.39-1.02-.53-2.07-.99-3.15-1.4.01-.11.03-.23.03-.34,0-.85-.36-1.61-.93-2.15.02-.03.03-.06.05-.09.58-1.1,1.04-2.24,1.4-3.42ZM48.15,114.59c1.32.56,2.9,1.38,4.41,2.56-.03.77-.1,1.52-.21,2.27l-.03.31-.13-.29c-1.3-1.87-2.84-3.58-4.6-5.07.19.08.38.14.56.22ZM44.57,113.42c2.7,1.81,4.99,4.08,6.79,6.7l.2.28c-.09.17-.14.36-.14.56,0,.35.15.67.39.89-.35,1.2-.81,2.36-1.39,3.48-.35-.14-.73-.23-1.14-.23-1.23,0-2.29.75-2.74,1.82-.87-.13-1.76-.22-2.66-.27.52-4.72-.25-9.43-2.25-13.76.98.11,1.97.3,2.93.53ZM35.54,127.14c1.33-3.59,1.6-7.47.8-11.23-.1-.47-.22-.93-.35-1.39.56-.39.94-1.03.98-1.76.78-.05,1.58-.07,2.39-.05.2.42.63.72,1.13.72.07,0,.14,0,.21-.02,1.9,4.15,2.63,8.67,2.12,13.19h-.55c-2.28,0-4.53.28-6.72.81-.02-.05-.05-.09-.07-.14.02-.04.04-.09.05-.13ZM27.46,132.09c1.86-1.18,3.87-2.14,5.96-2.85-.73,1.35-1.61,2.61-2.65,3.76-.47.52-.96.99-1.47,1.44-.66-.74-1.28-1.52-1.85-2.34ZM30.04,135.21c.52-.47,1.04-.96,1.53-1.5,1.16-1.28,2.14-2.71,2.93-4.24.52-.07.95-.42,1.13-.9,2.31-.59,4.69-.9,7.06-.89-.16,1.06-.39,2.12-.69,3.14-.16.54-.33,1.07-.52,1.6-.12-.02-.25-.04-.38-.04-1.08,0-1.96.88-1.96,1.96,0,.63.3,1.19.77,1.54-.85,1.55-1.86,3.01-3.01,4.34-2.55-1.27-4.87-2.97-6.86-5.01ZM46.25,154.01c-.25-.19-.56-.31-.91-.31-.52,0-.98.27-1.25.68-2.31-.33-4.56-.95-6.73-1.87-2.5-1.06-4.81-2.48-6.89-4.23.2-.32.32-.7.32-1.11,0-.18-.03-.35-.07-.52,2.41-1.36,4.57-3.09,6.42-5.11,1.88.87,3.88,1.52,5.95,1.91,1.13.23,2.34.37,3.6.44.48.03.95.04,1.43.04,2.03,0,4.04-.25,6-.71-1.59,4.19-4.3,7.94-7.88,10.78ZM60.4,143.89c-.52.24-.86.77-.86,1.35v1.54c0,.15-.08.29-.2.38l-1.31.87c-.47.31-.61.94-.33,1.42l.91,1.54c.07.12.11.26.12.39.02.4.01.75,0,1.07-3.39,1.46-7,2.2-10.74,2.2-.27,0-.54-.01-.81-.02,3.79-3.1,6.61-7.18,8.19-11.73,2.21-.64,4.34-1.6,6.34-2.83.47.93.94,1.82,1.34,2.59l-2.66,1.22Z"/>
  <g class="cls-1">
    <g>
      <path class="cls-4" d="M88.15,169.52c-1.59,1.54-3.63,2.25-5.85,2.25-5.72,0-8.14-3.88-8.16-7.82-.02-3.96,2.59-7.99,8.16-7.99,2.09,0,4.07.78,5.65,2.32l-1.93,1.84c-1.01-.98-2.38-1.43-3.72-1.43-3.72,0-5.32,2.73-5.3,5.26.02,2.51,1.5,5.13,5.3,5.13,1.34,0,2.86-.54,3.87-1.54l1.98,1.97h0Z"/>
      <path class="cls-4" d="M92.04,156.28v5.93c.97-1.23,2.16-1.6,3.38-1.6,3.08,0,4.45,2.06,4.45,5.2v5.62h-2.69v-5.61c0-1.95-1.03-2.77-2.47-2.77-1.59,0-2.69,1.32-2.69,2.93v5.45h-2.68v-15.15h2.69Z"/>
      <path class="cls-4" d="M105.07,157.75c0,2.06-3.17,2.06-3.17,0s3.17-2.06,3.17,0ZM102.14,160.72v10.72h2.68v-10.72h-2.68Z"/>
      <path class="cls-4" d="M109.53,167.03c.17,1.32,1.34,2.27,3.23,2.27.99,0,2.29-.37,2.9-1l1.71,1.67c-1.14,1.17-3.01,1.73-4.66,1.73-3.74,0-5.96-2.27-5.96-5.7s2.24-5.59,5.76-5.59,5.9,2.21,5.48,6.6h-8.47ZM115.43,164.85c-.17-1.39-1.28-2.08-2.81-2.08-1.45,0-2.64.69-3.04,2.08h5.85Z"/>
      <path class="cls-4" d="M120.95,171.43v-8.21h-2.02v-2.32h2.02v-.72c0-2.86,1.96-4.18,4.14-4.18.94,0,1.93.3,2.81.87l-.99,1.97c-.57-.37-1.1-.56-1.65-.56-.93,0-1.63.61-1.63,1.9v.72h3.19v2.32h-3.19v8.21h-2.69Z"/>
      <path class="cls-4" d="M140.06,168.57h-8.05l-1.32,2.86h-3.15l6.9-15.15h3.17l6.9,15.15h-3.17l-1.3-2.86h0ZM136.03,159.46l-2.86,6.45h5.72l-2.86-6.45h0Z"/>
      <path class="cls-4" d="M145.62,171.43v-15.15h2.88v15.15h-2.88Z"/>
      <path class="cls-4" d="M166.84,163.94c-.05,3.92-2.49,7.84-7.9,7.84s-7.92-3.83-7.92-7.82,2.59-7.99,7.92-7.99,7.94,4,7.9,7.97ZM153.88,164c.06,2.49,1.43,5.15,5.06,5.15s4.99-2.68,5.03-5.17c.05-2.55-1.41-5.41-5.03-5.41s-5.13,2.88-5.06,5.44Z"/>
      <path class="cls-4" d="M169.65,171.43v-8.21h-2.02v-2.32h2.02v-.72c0-2.86,1.96-4.18,4.14-4.18.94,0,1.93.3,2.81.87l-.99,1.97c-.57-.37-1.1-.56-1.65-.56-.93,0-1.62.61-1.62,1.9v.72h3.19v2.32h-3.19v8.21h-2.69Z"/>
      <path class="cls-4" d="M178.51,171.43v-8.21h-2.02v-2.32h2.02v-.72c0-2.86,1.96-4.18,4.14-4.18.94,0,1.93.3,2.81.87l-.99,1.97c-.57-.37-1.1-.56-1.65-.56-.93,0-1.62.61-1.62,1.9v.72h3.19v2.32h-3.19v8.21h-2.69Z"/>
      <path class="cls-4" d="M189.21,157.75c0,2.06-3.17,2.06-3.17,0s3.17-2.06,3.17,0ZM186.28,160.72v10.72h2.68v-10.72h-2.68Z"/>
      <path class="cls-4" d="M200.68,170.07c-1.25,1.21-2.58,1.69-4.18,1.69-3.15,0-5.76-1.86-5.76-5.65s2.62-5.65,5.76-5.65c1.54,0,2.73.43,3.92,1.58l-1.7,1.76c-.63-.56-1.43-.84-2.18-.84-1.81,0-3.12,1.3-3.12,3.16,0,2.04,1.41,3.12,3.08,3.12.86,0,1.71-.24,2.38-.89l1.81,1.73h0Z"/>
      <path class="cls-4" d="M204.6,167.03c.17,1.32,1.34,2.27,3.23,2.27.99,0,2.29-.37,2.9-1l1.71,1.67c-1.14,1.17-3.01,1.73-4.66,1.73-3.74,0-5.96-2.27-5.96-5.7s2.24-5.59,5.76-5.59,5.9,2.21,5.48,6.6h-8.47ZM210.5,164.85c-.17-1.39-1.28-2.08-2.81-2.08-1.45,0-2.64.69-3.04,2.08h5.85Z"/>
      <path class="cls-4" d="M217.63,160.76l.2,1.23c.83-1.32,1.96-1.51,3.06-1.51s2.2.44,2.8,1.01l-1.21,2.29c-.55-.45-1.05-.69-1.93-.69-1.41,0-2.7.73-2.7,2.71v5.62h-2.68v-10.67h2.49-.02Z"/>
      <path class="cls-4" d="M227.79,170.07c0,2.06-3.17,2.06-3.17,0s3.17-2.06,3.17,0Z"/>
      <path class="cls-4" d="M238.98,170.07c-1.25,1.21-2.58,1.69-4.18,1.69-3.15,0-5.76-1.86-5.76-5.65s2.62-5.65,5.76-5.65c1.54,0,2.73.43,3.92,1.58l-1.7,1.76c-.63-.56-1.43-.84-2.18-.84-1.81,0-3.12,1.3-3.12,3.16,0,2.04,1.41,3.12,3.08,3.12.86,0,1.71-.24,2.38-.89l1.81,1.73h0Z"/>
      <path class="cls-4" d="M251.17,166.11c0,3.07-2.13,5.56-5.65,5.56s-5.63-2.49-5.63-5.56,2.16-5.56,5.61-5.56,5.68,2.51,5.68,5.56h0ZM242.57,166.11c0,1.62.99,3.14,2.95,3.14s2.95-1.51,2.95-3.14-1.14-3.16-2.95-3.16c-1.93,0-2.95,1.56-2.95,3.16Z"/>
      <path class="cls-4" d="M260.23,171.43v-5.72c0-1.4-.75-2.68-2.22-2.68s-2.31,1.28-2.31,2.68v5.72h-2.68v-10.7h2.49l.2,1.3c.57-1.08,1.82-1.47,2.86-1.47,1.3,0,2.59.52,3.21,1.99.97-1.51,2.22-1.95,3.63-1.95,3.08,0,4.6,1.86,4.6,5.06v5.76h-2.68v-5.76c0-1.4-.59-2.6-2.05-2.6s-2.35,1.23-2.35,2.64v5.72h-2.7Z"/>
    </g>
  </g>
  <g>
    <path class="cls-4" d="M96.56,133.57c0-.05-.03.31-.08,1.08-.11,1.54-.16,3.03-.16,4.46,0,.16.03.49.08.98.05.49.08,1.08.08,1.77v.36c0,.34-.11.52-.32.52s-.4-.2-.56-.6c-.37-.88-.74-1.45-1.12-1.71-1.91,1.67-4.21,2.51-6.89,2.51-3.9,0-7.14-1.36-9.7-4.08-2.56-2.72-3.84-6.16-3.84-10.3s1.18-7.58,3.53-10.22c2.35-2.64,5.38-3.96,9.1-3.96,1.35,0,2.44.11,3.25.34.81.23,1.81.68,3.01,1.37.58.35,1.02.52,1.31.52.24,0,.46-.21.68-.64.34-.74.62-1.12.84-1.12s.32.11.32.32c0,.11-.03.28-.08.52-.29,1.27-.44,3.67-.44,7.17,0,.51-.04.8-.12.88s-.19.12-.32.12c-.27,0-.44-.25-.52-.76-.35-2.12-.84-3.71-1.47-4.74-1.3-2.12-3.35-3.19-6.14-3.19-2.15,0-3.85.72-5.1,2.15-2.26,2.58-3.39,6.35-3.39,11.31,0,4.44.93,7.87,2.79,10.32,1.62,2.13,3.77,3.19,6.45,3.19,1.38,0,2.64-.34,3.79-1.02,1.14-.68,2.02-1.6,2.63-2.77.69-1.35,1.18-2.83,1.47-4.42.11-.64.28-.96.52-.96.27,0,.4.2.4.6Z"/>
    <path class="cls-4" d="M121.34,136.04c0,.11-.03.76-.08,1.95-.05,1.2-.08,2.34-.08,3.43v1.31c-2.6-.16-7.76-.24-15.46-.24h-4.98c-.5,0-.76-.11-.76-.32,0-.14.08-.23.24-.25.08,0,.58-.04,1.51-.11.69-.05,1.11-.2,1.25-.44.15-.24.22-.87.22-1.88v-22.46c0-.77-.11-1.23-.34-1.38-.23-.15-.95-.22-2.17-.22-.43,0-.64-.11-.64-.34s.29-.34.88-.34h16.89c.8,0,1.53-.05,2.19-.16.05,1.14.17,2.72.36,4.74l.16,1.71c.03.13.04.31.04.52,0,.27-.12.4-.36.4-.29,0-.5-.33-.64-1-.51-2.41-1.33-3.93-2.47-4.57-.85-.48-3.08-.72-6.69-.72h-3.27v11.71h.96c2.97,0,4.79-.23,5.44-.68.65-.45,1.1-1.77,1.33-3.94.05-.56.2-.84.44-.84.29,0,.44.24.44.72s-.03,1.18-.08,2.11c-.05.93-.08,1.63-.08,2.11,0,2.84.04,4.79.13,5.86.02.27.03.49.03.68,0,.35-.15.52-.44.52-.19,0-.31-.11-.38-.34-.07-.23-.18-.96-.34-2.21-.21-1.57-.86-2.54-1.94-2.91-.48-.16-1.72-.24-3.73-.24h-1.78v13.35c5.84,0,9.27-.12,10.28-.35,1.75-.39,2.75-2.07,2.99-5.04.05-.66.23-.98.52-.98.27,0,.4.28.4.84Z"/>
    <path class="cls-4" d="M146.44,141.26c0,1.12-.93,1.67-2.79,1.67-2.07,0-3.69-.86-4.86-2.59-.5-.74-.83-1.46-.98-2.15-.15-.69-.37-2.44-.66-5.26-.16-1.7-.7-2.9-1.63-3.61-.93-.7-2.44-1.08-4.54-1.14v12.55c0,.53.42.86,1.28,1,.24.03.85.05,1.83.08.34,0,.52.11.52.32,0,.24-.23.36-.68.36h-9.36c-.58,0-.88-.12-.88-.36,0-.19.38-.29,1.16-.32,1.25-.03,1.93-.19,2.03-.48.11-.13.16-.65.16-1.55v-21.99c0-1.06-.11-1.7-.34-1.91-.23-.21-.91-.33-2.05-.36-.66,0-1-.12-1-.36,0-.27.21-.4.64-.4.08,0,.2.01.36.04l5.3.12c.53,0,1.28-.02,2.23-.05,1.06-.07,1.81-.11,2.23-.11,2.47,0,4.43.55,5.88,1.65,1.45,1.1,2.17,2.6,2.17,4.48s-.74,3.39-2.23,4.6c-1.49,1.21-3.51,1.92-6.06,2.13-.24.03-.37.07-.4.12,0,.11.13.16.4.16,2.79.48,4.71,1.46,5.76,2.94,1.05,1.48,1.75,4.15,2.09,8.01.21,2.18.96,3.28,2.23,3.28.4,0,.6-.08.6-.24,0-.03-.01-.05-.04-.08-.13-.29-.2-.53-.2-.72,0-.56.29-.84.88-.84.64,0,.96.33.96,1ZM138.19,121.3c0-3.8-1.65-5.7-4.94-5.7-.88,0-1.47.12-1.79.36-.32.24-.48.66-.48,1.28v10.12c2.55.03,4.39-.44,5.52-1.39,1.13-.96,1.69-2.51,1.69-4.66Z"/>
    <path class="cls-4" d="M169.59,121.9c0,.35-.16.52-.48.52s-.55-.35-.68-1.04c-.05-.48-.11-.96-.16-1.43-.19-.96-.49-1.77-.92-2.43-.56-.88-1.47-1.43-2.75-1.67-.82-.16-1.49-.23-1.99-.2-1.25.04-2.01.06-2.27.08v24.06c0,.96.25,1.56.76,1.8.27.13,1.01.21,2.23.24.32.03.48.14.48.34,0,.23-.21.34-.64.34-.21,0-.4-.01-.56-.04-1.59-.05-2.72-.08-3.39-.08-.88,0-1.7.02-2.47.06-.77.04-1.75.06-2.95.06-.61,0-.92-.11-.92-.32,0-.24.57-.37,1.71-.4.82,0,1.35-.17,1.59-.52.13-.21.2-.76.2-1.64v-23.9c-2.63.03-4.26.16-4.9.4-1.67.61-2.66,2.24-2.95,4.9-.08.8-.27,1.2-.56,1.2-.32,0-.48-.28-.48-.84,0-.29.01-.58.04-.88l.08-.92c.08-1.22.2-2.83.36-4.82h1.79l8.13.12c.96.03,2.44.03,4.46,0l6.61-.12c.05,1.49.22,3.69.52,6.61,0,.08.01.18.04.3.03.12.04.19.04.22Z"/>
    <path class="cls-4" d="M182.29,142.12c0,.23-.16.34-.48.34h-.4c-.16-.08-1.97-.12-5.42-.12-.66,0-1.33.03-1.99.08-.35.03-.88.04-1.59.04-.34,0-.52-.12-.52-.36,0-.21.34-.33,1.04-.36,1.06-.03,1.69-.15,1.87-.38s.28-.99.28-2.3v-21.02c0-1.31-.07-2.04-.2-2.2-.16-.27-.9-.43-2.22-.48-.51-.02-.77-.12-.77-.28,0-.21.16-.32.48-.32h5.42c.4,0,1.18.01,2.33.04l1.53-.04c.43,0,.64.11.64.34,0,.2-.59.33-1.77.38-.67.03-1.08.15-1.23.36s-.22.77-.22,1.67v21.27c0,1.51.07,2.34.2,2.47.29.29,1.16.47,2.59.52.29,0,.44.11.44.34Z"/>
    <path class="cls-4" d="M205.6,121.42c0,.37-.13.56-.4.56s-.45-.34-.56-1.01c-.32-1.94-.97-3.35-1.95-4.24-.64-.56-1.62-.91-2.95-1.05-.48-.05-1.54-.08-3.19-.08-1.22,0-2.68.04-4.38.12v11.71c3.4.03,5.5-.19,6.29-.66.8-.46,1.28-1.77,1.43-3.92.05-.61.21-.92.48-.92s.4.2.4.6c0,.24-.01.44-.04.6-.08,1.83-.12,3.53-.12,5.1,0,2.02.04,3.61.13,4.78.02.11.03.27.03.48,0,.32-.13.48-.4.48-.21,0-.34-.08-.4-.24s-.14-.77-.28-1.83c-.21-1.62-.63-2.63-1.25-3.03-.62-.4-1.86-.6-3.71-.6-.98,0-1.84.03-2.58.08v11.87c0,.77.3,1.26.91,1.47.29.11.93.15,1.93.12.42,0,.63.11.63.32,0,.24-.27.36-.8.36h-9.08c-.5,0-.76-.11-.76-.32s.46-.35,1.37-.4c.92-.05,1.45-.18,1.61-.38.16-.2.24-.82.24-1.86v-22.94c-.03-.48-.17-.78-.42-.9-.26-.12-.95-.19-2.08-.22-.43,0-.65-.13-.65-.4,0-.24.24-.36.72-.36h.64c-.05,0,1.23,0,3.84,0h6.43c4.49,0,7.24-.08,8.25-.24.03.35.11,1.34.24,2.99.08,1.12.19,2.11.32,2.99.05.37.08.69.08.96Z"/>
    <path class="cls-4" d="M217.71,142.12c0,.23-.16.34-.48.34h-.4c-.16-.08-1.97-.12-5.42-.12-.66,0-1.33.03-1.99.08-.35.03-.88.04-1.59.04-.34,0-.52-.12-.52-.36,0-.21.34-.33,1.04-.36,1.06-.03,1.69-.15,1.87-.38s.28-.99.28-2.3v-21.02c0-1.31-.07-2.04-.2-2.2-.16-.27-.9-.43-2.22-.48-.51-.02-.77-.12-.77-.28,0-.21.16-.32.48-.32h5.42c.4,0,1.18.01,2.33.04l1.53-.04c.43,0,.64.11.64.34,0,.2-.59.33-1.77.38-.67.03-1.08.15-1.23.36s-.22.77-.22,1.67v21.27c0,1.51.07,2.34.2,2.47.29.29,1.16.47,2.59.52.29,0,.44.11.44.34Z"/>
    <path class="cls-4" d="M241.77,136.04c0,.11-.03.76-.08,1.95-.05,1.2-.08,2.34-.08,3.43v1.31c-2.6-.16-7.76-.24-15.46-.24h-4.98c-.5,0-.76-.11-.76-.32,0-.14.08-.23.24-.25.08,0,.58-.04,1.51-.11.69-.05,1.11-.2,1.25-.44s.22-.87.22-1.88v-22.46c0-.77-.11-1.23-.34-1.38-.23-.15-.95-.22-2.17-.22-.43,0-.64-.11-.64-.34s.29-.34.88-.34h16.89c.8,0,1.53-.05,2.19-.16.05,1.14.17,2.72.36,4.74l.16,1.71c.03.13.04.31.04.52,0,.27-.12.4-.36.4-.29,0-.5-.33-.64-1-.5-2.41-1.33-3.93-2.47-4.57-.85-.48-3.08-.72-6.69-.72h-3.27v11.71h.96c2.97,0,4.79-.23,5.44-.68.65-.45,1.09-1.77,1.33-3.94.05-.56.2-.84.44-.84.29,0,.44.24.44.72s-.03,1.18-.08,2.11c-.05.93-.08,1.63-.08,2.11,0,2.84.04,4.79.13,5.86.02.27.03.49.03.68,0,.35-.14.52-.44.52-.19,0-.31-.11-.38-.34-.07-.23-.18-.96-.34-2.21-.21-1.57-.86-2.54-1.94-2.91-.48-.16-1.72-.24-3.73-.24h-1.79v13.35c5.84,0,9.27-.12,10.28-.35,1.75-.39,2.75-2.07,2.99-5.04.05-.66.23-.98.52-.98.27,0,.4.28.4.84Z"/>
    <path class="cls-4" d="M270.1,128.63c0,4.69-1.63,8.34-4.9,10.95-2.39,1.92-5.59,2.88-9.6,2.88h-10.8c-.5,0-.76-.13-.76-.4,0-.24.43-.36,1.28-.36,1.09,0,1.77-.2,2.03-.6.11-.19.16-.69.16-1.51v-21.47c0-1.3-.1-2.06-.3-2.27-.2-.21-.88-.32-2.05-.32-.61,0-.92-.15-.92-.44,0-.21.23-.32.68-.32-.03,0,.27,0,.88,0h6.06c4.78,0,8.17.33,10.16,1,2.42.8,4.37,2.38,5.86,4.73,1.49,2.36,2.23,5.07,2.23,8.13ZM265.64,128.47c0-4.42-.86-7.67-2.59-9.73-1.73-2.06-4.42-3.1-8.09-3.1-1.78,0-2.86.19-3.23.56-.16.19-.24.83-.24,1.92v21.26c0,.75.02,1.2.06,1.36s.15.29.34.4c.64.32,1.98.48,4.02.48,2.87,0,5.18-1.01,6.93-3.04,1.86-2.13,2.79-5.5,2.79-10.11Z"/>
  </g>
</svg>