<?xml version="1.0" encoding="UTF-8"?>
<svg id="Layer_1" data-name="Layer 1" xmlns="http://www.w3.org/2000/svg" xmlns:xlink="http://www.w3.org/1999/xlink" viewBox="0 0 283.46 283.46">
  <defs>
    <style>
      .cls-1 {
        clip-path: url(#clippath);
      }

      .cls-2 {
        fill: none;
      }

      .cls-2, .cls-3, .cls-4, .cls-5 {
        stroke-width: 0px;
      }

      .cls-3 {
        fill: url(#linear-gradient);
      }

      .cls-4 {
        fill: #241c45;
      }

      .cls-5 {
        fill: #464263;
      }
    </style>
    <linearGradient id="linear-gradient" x1="25.58" y1="163.56" x2="56.54" y2="112.41" gradientUnits="userSpaceOnUse">
      <stop offset="0" stop-color="#3c84c5"/>
      <stop offset=".45" stop-color="#c666a7"/>
      <stop offset="1" stop-color="#f8bb4d"/>
    </linearGradient>
    <clipPath id="clippath">
      <rect class="cls-2" x="73.86" y="153.63" width="195.96" height="15.95"/>
    </clipPath>
  </defs>
  <path class="cls-3" d="M64.3,142.2c-2.16-4.1-4.4-8.71-4.44-9.33.78-6.79-1.39-12.49-6.07-16.31-.04-.05-.08-.08-.14-.11-1.39-1.12-2.99-2.08-4.81-2.84-1.15-.49-2.35-.87-3.58-1.17-.07-.03-.14-.05-.21-.05-1.01-.24-2.03-.42-3.06-.54-.14-.54-.63-.94-1.21-.94-.53,0-.98.32-1.17.77-.85-.02-1.69,0-2.52.06-.35-.84-1.17-1.42-2.14-1.42-1.23,0-2.24.98-2.3,2.2-2.07.6-3.88,1.51-5.2,2.71-.14-.04-.27-.06-.42-.06-.96,0-1.74.78-1.74,1.74s.78,1.73,1.74,1.73,1.73-.78,1.73-1.73c0-.41-.14-.78-.38-1.07,1.16-1,2.69-1.76,4.44-2.29.36.82,1.17,1.4,2.13,1.4.11,0,.21-.02.31-.03.11.4.23.81.32,1.22.75,3.52.5,7.16-.72,10.53-.09-.02-.18-.03-.28-.03-.78,0-1.42.64-1.42,1.43,0,.05,0,.09.02.14-2.12.75-4.14,1.74-6.03,2.96-.56-.89-1.08-1.82-1.54-2.8-.62-1.33-1.12-2.71-1.49-4.13.34-.22.56-.61.56-1.04,0-.7-.57-1.26-1.26-1.26s-1.26.56-1.26,1.26c0,.57.38,1.05.91,1.2.4,1.52.93,3.01,1.59,4.43.48,1.02,1.03,2,1.62,2.93-.7.5-1.39,1.03-2.04,1.58l-.14.11s-.02,0-.02.02h0c-.62.54-1.2,1.1-1.76,1.68-.18-.1-.39-.16-.6-.16-.72,0-1.29.58-1.29,1.3s.57,1.29,1.29,1.29,1.29-.58,1.29-1.29c0-.1-.02-.19-.03-.28.53-.55,1.07-1.09,1.65-1.6l.15-.13c.09-.07.18-.14.27-.21.59-.49,1.2-.96,1.84-1.39.59.85,1.24,1.68,1.93,2.45-.04.03-.07.07-.11.1-1.6,1.26-3.38,2.26-5.31,2.96l-.11.05c-.81.29-1.64.51-2.48.69-.29-.55-.86-.92-1.52-.92-.95,0-1.73.77-1.73,1.72s.78,1.72,1.73,1.72c.86,0,1.57-.64,1.69-1.47.94-.2,1.87-.46,2.77-.78l.11-.05c2-.73,3.84-1.77,5.49-3.08.06-.05.12-.11.18-.16,2.01,2.09,4.35,3.82,6.93,5.15-1.73,1.84-3.73,3.41-5.94,4.66-.39-.41-.93-.66-1.54-.66-1.17,0-2.12.94-2.12,2.12,0,.08.02.16.02.24-.06.02-.11.05-.18.07-2.96,1.07-6.1,1.57-9.22,1.49-.24-.8-.98-1.39-1.87-1.39-1.08,0-1.96.88-1.96,1.96s.88,1.96,1.96,1.96c.91,0,1.66-.62,1.88-1.46.21,0,.43.02.64.02,3.02,0,6.06-.53,8.92-1.57.07-.02.13-.05.2-.08.38.53,1.01.88,1.71.88.37,0,.72-.11,1.02-.27,2.18,1.84,4.61,3.35,7.25,4.47,2.23.94,4.55,1.58,6.93,1.93.02.08.04.16.06.23-3.98,2.5-8.53,3.81-13.29,3.81-1.67,0-3.32-.17-4.93-.5-.14-.44-.55-.77-1.04-.77-.61,0-1.1.5-1.1,1.1s.49,1.1,1.1,1.1c.33,0,.62-.14.82-.38,1.68.34,3.41.52,5.15.52,5.01,0,9.79-1.4,13.97-4.05.21.13.46.21.73.21.65,0,1.2-.42,1.4-.99.41.02.83.03,1.25.03,3.68,0,7.25-.7,10.6-2.06-.14.72-.37,1.11-.55,1.3-.23.25-.43.27-.46.27-18.35.31-26.48,16.99-26.57,17.16-.12.27-.02.59.25.72.08.03.15.05.23.05.2,0,.4-.11.49-.3.08-.17,7.92-16.26,25.59-16.56.06,0,.63.02,1.19-.53.78-.78,1.14-2.26,1.04-4.42-.02-.31-.11-.62-.27-.88l-.91-1.54,1.3-.87c.43-.28.68-.75.68-1.26v-1.55c0-.16.09-.3.24-.37l2.8-1.29c.26-.12.45-.35.52-.63.06-.26,0-.53-.14-.74ZM61.51,139.12c-1.73,1.07-3.56,1.91-5.46,2.52.69-2.35,1.06-4.81,1.06-7.31,0-.85-.06-1.7-.14-2.54.6.37,1.21.79,1.85,1.26.21.99,1.42,3.55,2.68,6.07ZM53.86,118.01c3.02,2.75,5.54,7.07,5.02,13.78-.59-.42-1.19-.82-1.77-1.16-.09-.06-.2-.11-.3-.17-.45-3.09-1.46-6.04-2.94-8.73.17-.21.27-.47.27-.77,0-.42-.21-.8-.54-1.02l.04-.18c.1-.58.18-1.17.21-1.75ZM42.71,132.91c.22-.59.42-1.19.6-1.79.32-1.11.57-2.25.74-3.4.86.05,1.72.13,2.57.25,0,.03,0,.06,0,.09,0,1.64,1.33,2.96,2.96,2.96,1.14,0,2.12-.65,2.61-1.6,1.26.47,2.48,1.04,3.66,1.71.14,1.06.21,2.13.21,3.2,0,2.64-.43,5.23-1.22,7.69-2.52.67-5.13.95-7.78.81-1.21-.07-2.37-.21-3.46-.43-1.88-.36-3.69-.94-5.41-1.71,1.15-1.36,2.15-2.85,3.01-4.43.06,0,.13.02.19.02,1.08,0,1.96-.88,1.96-1.96,0-.56-.24-1.07-.62-1.43ZM53.03,122.41c1.24,2.3,2.12,4.79,2.6,7.39-1.02-.53-2.07-.99-3.15-1.4.01-.11.03-.23.03-.34,0-.85-.36-1.61-.93-2.15.02-.03.03-.06.05-.09.58-1.1,1.04-2.24,1.4-3.42ZM48.43,114.59c1.32.56,2.9,1.38,4.41,2.56-.03.77-.1,1.52-.21,2.27l-.03.31-.13-.29c-1.3-1.87-2.84-3.58-4.6-5.07.19.08.38.14.56.22ZM44.85,113.42c2.7,1.81,4.99,4.08,6.79,6.7l.2.28c-.09.17-.14.36-.14.56,0,.35.15.67.39.89-.35,1.2-.81,2.36-1.39,3.48-.35-.14-.73-.23-1.14-.23-1.23,0-2.29.75-2.74,1.82-.87-.13-1.76-.22-2.66-.27.52-4.72-.25-9.43-2.25-13.76.98.11,1.97.3,2.93.53ZM35.81,127.14c1.33-3.59,1.6-7.47.8-11.23-.1-.47-.22-.93-.35-1.39.56-.39.94-1.03.98-1.76.78-.05,1.58-.07,2.39-.05.2.42.63.72,1.13.72.07,0,.14,0,.21-.02,1.9,4.15,2.63,8.67,2.12,13.19h-.55c-2.28,0-4.53.28-6.72.81-.02-.05-.05-.09-.07-.14.02-.04.04-.09.05-.13ZM27.74,132.09c1.86-1.18,3.87-2.14,5.96-2.85-.73,1.35-1.61,2.61-2.65,3.76-.47.52-.96.99-1.47,1.44-.66-.74-1.28-1.52-1.85-2.34ZM30.32,135.21c.52-.47,1.04-.96,1.53-1.5,1.16-1.28,2.14-2.71,2.93-4.24.52-.07.95-.42,1.13-.9,2.31-.59,4.69-.9,7.06-.89-.16,1.06-.39,2.12-.69,3.14-.16.54-.33,1.07-.52,1.6-.12-.02-.25-.04-.38-.04-1.08,0-1.96.88-1.96,1.96,0,.63.3,1.19.77,1.54-.85,1.55-1.86,3.01-3.01,4.34-2.55-1.27-4.87-2.97-6.86-5.01ZM46.53,154.01c-.25-.19-.56-.31-.91-.31-.52,0-.98.27-1.25.68-2.31-.33-4.56-.95-6.73-1.87-2.5-1.06-4.81-2.48-6.89-4.23.2-.32.32-.7.32-1.11,0-.18-.03-.35-.07-.52,2.41-1.36,4.57-3.09,6.42-5.11,1.88.87,3.88,1.52,5.95,1.91,1.13.23,2.34.37,3.6.44.48.03.95.04,1.43.04,2.03,0,4.04-.25,6-.71-1.59,4.19-4.3,7.94-7.88,10.78ZM60.68,143.89c-.52.24-.86.77-.86,1.35v1.54c0,.15-.08.29-.2.38l-1.31.87c-.47.31-.61.94-.33,1.42l.91,1.54c.07.12.11.26.12.39.02.4.01.75,0,1.07-3.39,1.46-7,2.2-10.74,2.2-.27,0-.54-.01-.81-.02,3.79-3.1,6.61-7.18,8.19-11.73,2.21-.64,4.34-1.6,6.34-2.83.47.93.94,1.82,1.34,2.59l-2.66,1.22Z"/>
  <g class="cls-1">
    <g>
      <path class="cls-5" d="M87.87,167.18c-1.59,1.54-3.63,2.25-5.85,2.25-5.72,0-8.14-3.88-8.16-7.82-.02-3.96,2.59-7.99,8.16-7.99,2.09,0,4.07.78,5.65,2.32l-1.93,1.84c-1.01-.98-2.38-1.43-3.72-1.43-3.72,0-5.32,2.73-5.3,5.26.02,2.51,1.5,5.13,5.3,5.13,1.34,0,2.86-.54,3.87-1.54l1.98,1.97h0Z"/>
      <path class="cls-5" d="M91.77,153.93v5.93c.97-1.23,2.16-1.6,3.38-1.6,3.08,0,4.45,2.06,4.45,5.2v5.62h-2.69v-5.61c0-1.95-1.03-2.77-2.47-2.77-1.59,0-2.69,1.32-2.69,2.93v5.45h-2.68v-15.15h2.69Z"/>
      <path class="cls-5" d="M104.79,155.41c0,2.06-3.17,2.06-3.17,0s3.17-2.06,3.17,0ZM101.86,158.37v10.72h2.68v-10.72h-2.68Z"/>
      <path class="cls-5" d="M109.25,164.69c.17,1.32,1.34,2.27,3.23,2.27.99,0,2.29-.37,2.9-1l1.71,1.67c-1.14,1.17-3.01,1.73-4.66,1.73-3.74,0-5.96-2.27-5.96-5.7s2.24-5.59,5.76-5.59,5.9,2.21,5.48,6.6h-8.47ZM115.15,162.51c-.17-1.39-1.28-2.08-2.81-2.08-1.45,0-2.64.69-3.04,2.08h5.85Z"/>
      <path class="cls-5" d="M120.67,169.08v-8.21h-2.02v-2.32h2.02v-.72c0-2.86,1.96-4.18,4.14-4.18.94,0,1.93.3,2.81.87l-.99,1.97c-.57-.37-1.1-.56-1.65-.56-.93,0-1.63.61-1.63,1.9v.72h3.19v2.32h-3.19v8.21h-2.69Z"/>
      <path class="cls-5" d="M139.78,166.23h-8.05l-1.32,2.86h-3.15l6.9-15.15h3.17l6.9,15.15h-3.17l-1.3-2.86h0ZM135.75,157.11l-2.86,6.45h5.72l-2.86-6.45h0Z"/>
      <path class="cls-5" d="M145.34,169.08v-15.15h2.88v15.15h-2.88Z"/>
      <path class="cls-5" d="M166.56,161.59c-.05,3.92-2.49,7.84-7.9,7.84s-7.92-3.83-7.92-7.82,2.59-7.99,7.92-7.99,7.94,4,7.9,7.97ZM153.6,161.65c.06,2.49,1.43,5.15,5.06,5.15s4.99-2.68,5.03-5.17c.05-2.55-1.41-5.41-5.03-5.41s-5.13,2.88-5.06,5.44Z"/>
      <path class="cls-5" d="M169.37,169.08v-8.21h-2.02v-2.32h2.02v-.72c0-2.86,1.96-4.18,4.14-4.18.94,0,1.93.3,2.81.87l-.99,1.97c-.57-.37-1.1-.56-1.65-.56-.93,0-1.62.61-1.62,1.9v.72h3.19v2.32h-3.19v8.21h-2.69Z"/>
      <path class="cls-5" d="M178.23,169.08v-8.21h-2.02v-2.32h2.02v-.72c0-2.86,1.96-4.18,4.14-4.18.94,0,1.93.3,2.81.87l-.99,1.97c-.57-.37-1.1-.56-1.65-.56-.93,0-1.62.61-1.62,1.9v.72h3.19v2.32h-3.19v8.21h-2.69Z"/>
      <path class="cls-5" d="M188.93,155.41c0,2.06-3.17,2.06-3.17,0s3.17-2.06,3.17,0ZM186,158.37v10.72h2.68v-10.72h-2.68Z"/>
      <path class="cls-5" d="M200.4,167.72c-1.25,1.21-2.58,1.69-4.18,1.69-3.15,0-5.76-1.86-5.76-5.65s2.62-5.65,5.76-5.65c1.54,0,2.73.43,3.92,1.58l-1.7,1.76c-.63-.56-1.43-.84-2.18-.84-1.81,0-3.12,1.3-3.12,3.16,0,2.04,1.41,3.12,3.08,3.12.86,0,1.71-.24,2.38-.89l1.81,1.73h0Z"/>
      <path class="cls-5" d="M204.32,164.69c.17,1.32,1.34,2.27,3.23,2.27.99,0,2.29-.37,2.9-1l1.71,1.67c-1.14,1.17-3.01,1.73-4.66,1.73-3.74,0-5.96-2.27-5.96-5.7s2.24-5.59,5.76-5.59,5.9,2.21,5.48,6.6h-8.47ZM210.22,162.51c-.17-1.39-1.28-2.08-2.81-2.08-1.45,0-2.64.69-3.04,2.08h5.85Z"/>
      <path class="cls-5" d="M217.35,158.42l.2,1.23c.83-1.32,1.96-1.51,3.06-1.51s2.2.44,2.8,1.01l-1.21,2.29c-.55-.45-1.05-.69-1.93-.69-1.41,0-2.7.73-2.7,2.71v5.62h-2.68v-10.67h2.49-.02Z"/>
      <path class="cls-5" d="M227.51,167.72c0,2.06-3.17,2.06-3.17,0s3.17-2.06,3.17,0Z"/>
      <path class="cls-5" d="M238.7,167.72c-1.25,1.21-2.58,1.69-4.18,1.69-3.15,0-5.76-1.86-5.76-5.65s2.62-5.65,5.76-5.65c1.54,0,2.73.43,3.92,1.58l-1.7,1.76c-.63-.56-1.43-.84-2.18-.84-1.81,0-3.12,1.3-3.12,3.16,0,2.04,1.41,3.12,3.08,3.12.86,0,1.71-.24,2.38-.89l1.81,1.73h0Z"/>
      <path class="cls-5" d="M250.89,163.76c0,3.07-2.13,5.56-5.65,5.56s-5.63-2.49-5.63-5.56,2.16-5.56,5.61-5.56,5.68,2.51,5.68,5.56h0ZM242.29,163.76c0,1.62.99,3.14,2.95,3.14s2.95-1.51,2.95-3.14-1.14-3.16-2.95-3.16c-1.93,0-2.95,1.56-2.95,3.16Z"/>
      <path class="cls-5" d="M259.95,169.08v-5.72c0-1.4-.75-2.68-2.22-2.68s-2.31,1.28-2.31,2.68v5.72h-2.68v-10.7h2.49l.2,1.3c.57-1.08,1.82-1.47,2.86-1.47,1.3,0,2.59.52,3.21,1.99.97-1.51,2.22-1.95,3.63-1.95,3.08,0,4.6,1.86,4.6,5.06v5.76h-2.68v-5.76c0-1.4-.59-2.6-2.05-2.6s-2.35,1.23-2.35,2.64v5.72h-2.7Z"/>
    </g>
  </g>
  <g>
    <path class="cls-4" d="M96.34,131.5l-.71,7.67-2.46-.48c-2.01.72-4.06,1.08-6.15,1.08-3.92,0-7.1-1.04-9.52-3.11-2.42-2.07-3.63-5-3.63-8.77s1.25-6.77,3.74-9.07c2.5-2.3,5.67-3.45,9.52-3.45,2.09,0,3.96.3,5.62.89l3.43-.82v8.31h-2.57l-1.56-5.44c-1.42-.74-2.96-1.12-4.62-1.12-2.53,0-4.53.93-5.98,2.79s-2.18,4.31-2.18,7.34c0,3.28.73,5.87,2.18,7.79s3.48,2.87,6.09,2.87c1.56,0,2.94-.3,4.13-.89l1.94-5.59h2.72Z"/>
    <path class="cls-4" d="M120.93,131.84l-.71,7.34h-20.15l.11-1.49,1.34-.15c.84-.1,1.27-.33,1.27-.71v-18.62c0-.17-.09-.31-.28-.41-.19-.1-.56-.19-1.14-.26l-1.19-.15-.11-1.49h20.22v7.67h-2.53l-.82-3.09c-.25-.94-.59-1.6-1.02-1.97-.43-.37-1.09-.62-1.96-.75-.87-.12-2.37-.19-4.51-.19h-1.75v9.01h.93c1.14,0,1.95-.08,2.42-.22.47-.15.79-.47.97-.97l.89-2.53h1.94l-.86,9.01h-1.86l-.37-2.38c-.05-.5-.28-.83-.69-.99-.41-.16-1.26-.24-2.55-.24h-.82v9.24h1.82c2.14,0,3.67-.07,4.62-.21.94-.14,1.64-.39,2.1-.76.46-.37.85-1.02,1.17-1.94l.82-2.76h2.68Z"/>
    <path class="cls-4" d="M138.51,128.11l4.84,7.64c.69.99,1.37,1.56,2.01,1.71l1.04.22.11,1.49h-7.19l-1.53-2.94-3.95-7.19-2.23.04v7.82c0,.32.46.54,1.38.63l1.19.15.11,1.49h-10.32l.11-1.49,1.34-.15c.84-.1,1.27-.33,1.27-.71v-18.62c0-.17-.09-.31-.28-.41-.19-.1-.56-.19-1.14-.26l-1.19-.15-.11-1.49h10.88c2.95,0,5.19.52,6.7,1.55,1.51,1.03,2.27,2.44,2.27,4.23,0,3-1.78,5.15-5.33,6.44ZM138.47,122.52c0-1.66-.45-2.93-1.36-3.8-.91-.87-2.15-1.28-3.74-1.23l-1.75.04v9.83l2.27.22c3.05-.37,4.58-2.06,4.58-5.07Z"/>
    <path class="cls-4" d="M169.16,123.72h-2.46l-.78-3.09c-.37-1.29-.88-2.12-1.51-2.5-.63-.37-1.81-.57-3.52-.6h-.22v19.37c0,.32.46.54,1.38.63l1.83.15.11,1.49h-11.51l.11-1.49,1.9-.15c.84-.1,1.27-.33,1.27-.71v-19.29h-.15c-1.71,0-2.91.18-3.59.54-.68.36-1.2,1.16-1.55,2.4l-.86,3.24h-2.68l.71-7.82h21.53v7.82Z"/>
    <path class="cls-4" d="M182.72,139.17h-11.17l.11-1.49,1.71-.15c.87-.1,1.3-.33,1.3-.71v-18.62c0-.32-.47-.55-1.42-.67l-1.6-.15-.11-1.49h11.17l-.11,1.49-1.75.15c-.84.1-1.27.33-1.27.71v18.66c0,.32.45.54,1.34.63l1.68.15.11,1.49Z"/>
    <path class="cls-4" d="M205.06,123.57h-2.53l-.78-3.09c-.37-1.34-.97-2.16-1.79-2.46s-2.73-.45-5.74-.45h-1.19v9.42h1.12c1.14,0,1.95-.07,2.42-.22.47-.15.79-.47.97-.97l.89-2.53h1.94l-.86,9.01h-1.86l-.37-2.38c-.08-.5-.31-.83-.71-.99-.4-.16-1.24-.24-2.53-.24h-1.01v8.23c0,.32.46.54,1.38.63l2.01.15.11,1.49h-11.14l.11-1.49,1.34-.15c.84-.1,1.27-.33,1.27-.71v-18.62c0-.17-.09-.31-.28-.41-.19-.1-.56-.19-1.14-.26l-1.19-.15-.11-1.49h19.67v7.67Z"/>
    <path class="cls-4" d="M218.96,139.17h-11.17l.11-1.49,1.71-.15c.87-.1,1.3-.33,1.3-.71v-18.62c0-.32-.47-.55-1.42-.67l-1.6-.15-.11-1.49h11.17l-.11,1.49-1.75.15c-.84.1-1.27.33-1.27.71v18.66c0,.32.45.54,1.34.63l1.68.15.11,1.49Z"/>
    <path class="cls-4" d="M242.5,131.84l-.71,7.34h-20.15l.11-1.49,1.34-.15c.84-.1,1.27-.33,1.27-.71v-18.62c0-.17-.09-.31-.28-.41-.19-.1-.56-.19-1.14-.26l-1.19-.15-.11-1.49h20.22v7.67h-2.53l-.82-3.09c-.25-.94-.59-1.6-1.02-1.97-.43-.37-1.09-.62-1.96-.75-.87-.12-2.37-.19-4.51-.19h-1.75v9.01h.93c1.14,0,1.95-.08,2.42-.22.47-.15.79-.47.97-.97l.89-2.53h1.94l-.86,9.01h-1.86l-.37-2.38c-.05-.5-.28-.83-.69-.99-.41-.16-1.26-.24-2.55-.24h-.82v9.24h1.83c2.13,0,3.67-.07,4.62-.21.94-.14,1.64-.39,2.1-.76.46-.37.85-1.02,1.17-1.94l.82-2.76h2.68Z"/>
    <path class="cls-4" d="M269.35,126.99c0,3.4-1.25,6.28-3.76,8.64s-5.93,3.54-10.28,3.54h-9.76l.11-1.49,1.34-.15c.84-.1,1.27-.33,1.27-.71v-18.62c0-.17-.09-.31-.28-.41-.19-.1-.56-.19-1.14-.26l-1.19-.15-.11-1.49,9.8-.15c4.25-.05,7.64.98,10.19,3.09,2.54,2.11,3.82,4.83,3.82,8.16ZM263.99,127.89c0-3.2-.81-5.74-2.44-7.62s-4-2.81-7.13-2.81h-1.23v19.63l2.68.56c2.51-.02,4.49-.96,5.94-2.81,1.45-1.85,2.18-4.17,2.18-6.95Z"/>
  </g>
</svg>